<?xml version="1.0" standalone="no"?>
<!DOCTYPE svg PUBLIC "-//W3C//DTD SVG 20010904//EN"
 "http://www.w3.org/TR/2001/REC-SVG-20010904/DTD/svg10.dtd">
<svg version="1.0" xmlns="http://www.w3.org/2000/svg"
 width="339.000000pt" height="405.000000pt" viewBox="0 0 339.000000 405.000000"
 preserveAspectRatio="xMidYMid meet">

<g transform="translate(0.000000,405.000000) scale(0.100000,-0.100000)"
fill="#000000" stroke="none">
<path d="M1599 3646 c-3 -3 -31 -9 -64 -15 -33 -5 -69 -13 -79 -17 -13 -5 -17
-4 -12 4 17 27 -58 -13 -107 -58 -65 -59 -101 -141 -92 -209 5 -36 2 -48 -16
-68 -13 -12 -32 -23 -43 -24 -19 -1 -19 -2 3 -8 21 -6 19 -8 -26 -28 -31 -13
-54 -31 -63 -49 -8 -16 -24 -43 -36 -60 -15 -20 -21 -39 -17 -53 3 -11 1 -27
-5 -34 -12 -14 -11 -167 0 -167 4 0 6 -35 3 -77 -4 -79 24 -303 44 -357 15
-38 14 -39 -14 -34 -29 6 -31 -5 -11 -44 10 -20 11 -29 2 -39 -8 -9 -7 -11 7
-6 11 4 17 1 17 -9 0 -11 -6 -13 -20 -9 -18 6 -20 2 -20 -39 0 -41 16 -104 24
-95 2 2 7 27 10 54 7 57 24 105 37 105 5 0 12 -11 15 -26 5 -18 1 -29 -12 -40
-14 -10 -15 -14 -4 -12 10 2 16 -7 18 -24 3 -27 -4 -33 -35 -29 -14 2 -17 -17
-7 -43 3 -8 12 -12 20 -9 9 3 15 -7 20 -36 4 -23 9 -41 13 -41 10 0 11 151 0
171 -7 15 -6 19 6 19 17 0 16 -5 16 223 0 102 5 165 16 205 8 31 17 86 19 122
5 93 7 99 65 183 40 59 58 77 76 77 18 0 23 5 23 25 0 19 5 25 23 25 13 0 17
-3 11 -8 -6 -4 -13 -50 -16 -106 -4 -66 -10 -101 -18 -106 -8 -5 -19 -29 -25
-55 -10 -39 -10 -48 2 -52 12 -5 11 -8 -2 -23 -8 -9 -13 -19 -10 -22 6 -6 -37
-54 -78 -85 -22 -17 -30 -33 -34 -68 -3 -28 0 -45 6 -45 6 0 11 -20 11 -44 0
-57 8 -76 30 -76 10 0 20 -9 23 -20 3 -11 12 -20 21 -20 24 0 58 -38 56 -63
-4 -46 0 -57 21 -57 11 0 29 -5 40 -10 15 -9 19 -7 19 7 0 13 3 14 12 5 8 -8
8 -15 0 -24 -7 -9 -7 -18 3 -32 14 -18 15 -17 27 10 7 16 17 32 23 36 17 13
45 9 45 -7 0 -27 -32 -90 -56 -108 -22 -17 -23 -16 -39 10 -12 21 -25 28 -49
30 -22 1 -43 11 -61 29 l-28 28 -8 -22 c-10 -26 -59 -32 -59 -7 0 8 -4 15 -9
15 -4 0 -6 11 -3 25 2 15 0 25 -7 25 -6 0 -11 -4 -11 -10 0 -5 -4 -10 -10 -10
-5 0 -10 11 -10 24 0 43 -16 37 -19 -7 -1 -23 -6 -44 -12 -45 -6 -3 -5 -10 2
-19 10 -11 10 -16 1 -22 -9 -5 -10 -24 -3 -72 5 -35 7 -67 4 -72 -7 -12 -6
-220 1 -263 l7 -40 -60 -18 c-59 -17 -191 -92 -263 -148 -58 -45 -172 -78
-318 -92 -36 -4 -82 -9 -103 -12 l-38 -6 3 369 c2 202 2 476 0 607 -2 174 1
241 9 247 25 15 -5 27 -126 49 -69 13 -125 28 -125 33 0 4 -9 5 -20 2 -11 -3
-20 -2 -20 4 0 9 -93 41 -120 41 -6 0 -10 -10 -8 -22 2 -17 9 -22 26 -21 15 2
21 -1 16 -9 -5 -8 0 -9 17 -5 23 6 109 -10 119 -22 3 -4 43 -16 90 -27 l85
-20 -3 -169 c-8 -474 -25 -1022 -33 -1042 -9 -24 -29 -32 -29 -10 0 6 4 29 9
50 8 35 8 37 -15 37 -13 0 -24 -5 -24 -11 0 -5 -5 -7 -11 -3 -8 4 -7 9 2 15
15 9 6 13 -23 10 -24 -3 -23 16 2 29 27 15 25 30 -5 30 -21 0 -23 3 -16 22 14
38 1 69 -37 85 -49 20 -98 9 -139 -32 l-33 -33 0 -826 0 -826 706 0 707 0 -6
343 c-8 393 -17 536 -47 697 -12 63 -25 140 -30 170 -5 30 -16 87 -24 125 -9
39 -16 84 -16 100 l0 30 19 -31 c32 -53 129 -140 240 -215 58 -40 140 -98 181
-129 124 -94 130 -95 217 -49 32 17 80 39 108 50 64 27 283 173 313 210 13 16
39 65 57 110 22 55 35 75 39 63 8 -22 -3 -81 -22 -119 -9 -16 -17 -59 -19 -94
-3 -76 -47 -222 -74 -247 -10 -9 -19 -25 -19 -36 0 -10 -4 -18 -10 -18 -5 0
-10 -7 -10 -15 0 -26 29 -16 65 23 l36 37 -3 -185 c-2 -103 3 -236 10 -300 6
-63 16 -201 21 -307 5 -105 12 -196 16 -202 4 -8 152 -11 471 -11 l464 0 0
1212 c0 1010 -2 1209 -13 1194 -11 -15 -17 -17 -35 -7 -31 17 -29 43 2 35 18
-4 27 -1 36 15 11 22 11 22 -38 37 -7 2 -15 -3 -18 -10 -3 -8 -20 -22 -37 -31
-71 -36 -93 -53 -111 -88 -12 -22 -27 -37 -38 -37 -10 0 -18 -6 -18 -14 0 -25
-32 -28 -49 -4 -23 31 -23 31 -56 50 -30 17 -51 63 -34 74 5 3 7 10 4 15 -4 5
-2 9 2 9 5 0 14 9 21 21 10 16 10 24 1 35 -6 7 -9 21 -5 29 4 10 -1 15 -14 15
-11 0 -20 -7 -20 -15 0 -8 -5 -15 -10 -15 -6 0 -15 -11 -20 -25 -5 -14 -16
-25 -24 -25 -7 0 -20 -10 -29 -23 -14 -21 -15 -21 -34 -4 -26 23 -44 21 -70
-7 -28 -29 -65 -37 -104 -23 -30 12 -36 21 -19 32 8 5 7 11 -1 21 -10 12 -8
16 10 21 18 5 19 7 7 17 -12 9 -13 14 -3 27 19 25 82 58 96 50 13 -8 5 -41
-10 -41 -5 0 -9 -4 -9 -10 0 -5 13 -10 30 -10 21 0 28 4 24 14 -6 15 49 60 60
49 3 -4 12 2 20 12 9 13 15 15 20 6 6 -9 11 -9 22 0 11 9 14 8 14 -2 0 -8 8 3
18 25 9 21 21 37 26 35 9 -4 21 13 29 41 4 14 26 28 72 46 19 7 19 8 -2 11
-29 5 -46 59 -27 86 21 32 53 48 99 51 25 2 52 9 60 16 19 16 98 17 103 1 2
-6 9 -11 17 -11 20 0 35 -24 28 -48 -5 -21 -43 -32 -43 -13 0 8 -52 31 -71 31
-5 0 -9 -11 -9 -25 0 -22 4 -25 36 -25 28 0 35 -3 30 -15 -3 -9 3 -24 14 -35
24 -24 30 -25 30 -4 0 11 6 14 20 9 20 -6 20 -2 20 190 l0 197 -97 -6 c-201
-14 -734 -25 -756 -16 -12 5 -17 9 -12 10 41 6 85 9 270 15 116 3 262 11 325
16 63 5 150 9 193 9 51 0 77 4 77 11 0 9 -42 10 -157 4 -247 -11 -284 -13
-523 -18 -134 -3 -201 -2 -165 3 33 4 114 8 180 9 144 1 256 11 250 21 -8 13
207 23 315 15 l100 -7 0 76 0 76 -37 -5 c-21 -2 -220 -12 -443 -20 -223 -8
-434 -17 -469 -19 l-63 -4 -63 53 c-63 53 -132 95 -158 95 -8 0 -21 7 -28 16
-26 32 -168 114 -196 114 -9 0 -24 7 -33 15 -16 14 -22 14 -65 -1 -27 -9 -54
-21 -61 -27 -39 -35 -47 -39 -71 -33 -13 4 -30 3 -36 -3 -7 -5 -31 -14 -55
-21 -24 -6 -50 -14 -59 -17 -12 -5 -11 3 6 35 24 48 66 73 122 74 21 0 39 4
39 9 0 9 -113 13 -121 5z m-79 -35 c0 -5 -6 -11 -12 -13 -12 -4 -17 -35 -17
-101 -1 -20 -6 -30 -21 -34 -11 -3 -20 -10 -20 -15 0 -5 -5 -6 -11 -2 -7 4 -9
23 -5 53 4 32 3 41 -4 31 -8 -12 -10 -11 -10 6 0 21 28 52 65 72 25 14 35 15
35 3z m25 -43 c-14 -24 -25 -51 -25 -60 0 -10 -5 -18 -11 -18 -11 0 -10 13 3
70 3 15 38 49 50 50 4 0 -4 -19 -17 -42z m-157 -2 c-25 -19 -53 -52 -64 -73
-15 -31 -19 -34 -22 -18 -3 14 12 35 53 72 32 29 63 53 68 53 5 0 -10 -15 -35
-34z m537 23 c-56 -11 -87 -11 -80 1 3 6 32 9 63 9 57 -1 57 -1 17 -10z m-110
-29 c-28 -12 -37 -12 -30 0 3 6 16 10 28 9 21 0 21 -1 2 -9z m-109 -38 c-3 -3
-20 -6 -38 -7 -29 -3 -31 -2 -15 10 16 12 65 9 53 -3z m291 2 c-3 -3 -12 -4
-19 -1 -8 3 -5 6 6 6 11 1 17 -2 13 -5z m-407 -29 c-7 -8 -20 -15 -29 -15 -12
1 -11 5 8 21 26 22 41 18 21 -6z m-239 -32 c-12 -20 -14 -14 -5 12 4 9 9 14
11 11 3 -2 0 -13 -6 -23z m1612 -544 c34 -15 34 -79 1 -110 -13 -12 -24 -19
-24 -15 0 5 -7 3 -15 -4 -8 -7 -15 -9 -15 -5 0 4 -7 1 -17 -6 -11 -10 -17 -10
-20 -3 -6 17 -53 4 -53 -15 0 -9 -12 -27 -25 -40 l-25 -23 0 26 c0 30 -11 33
-31 10 -10 -12 -10 -20 -1 -34 9 -15 7 -20 -18 -30 -15 -6 -30 -20 -33 -30 -6
-25 -56 -38 -68 -19 -11 16 -3 87 12 105 6 7 23 15 38 19 15 3 38 19 51 35 14
17 33 30 43 30 19 0 67 32 69 47 3 15 59 54 105 72 1 1 13 -4 26 -10z m-563
-90 c0 -16 -4 -29 -10 -29 -5 0 -10 -5 -10 -11 0 -5 5 -7 10 -4 6 3 10 -1 10
-9 0 -17 -36 -40 -50 -31 -5 3 -9 13 -8 23 0 9 -2 41 -5 71 -3 30 -2 48 3 42
5 -9 9 -8 14 6 7 17 9 16 27 -6 10 -13 19 -36 19 -52z m-503 -97 c4 -8 0 -20
-8 -26 -8 -6 -15 -18 -17 -26 -2 -8 -8 -16 -13 -18 -5 -2 -9 -10 -9 -18 0 -8
-6 -14 -14 -14 -8 0 -17 -6 -20 -12 -3 -7 -4 -4 -1 7 3 13 -6 32 -25 54 -17
18 -30 36 -30 40 1 18 20 30 55 33 52 4 75 -1 82 -20z m1041 -38 c0 -19 -6
-35 -14 -38 -8 -3 -14 -12 -14 -20 0 -14 -34 -30 -57 -27 -7 1 -13 -3 -13 -9
0 -5 -7 -10 -15 -10 -8 0 -15 4 -15 9 0 5 -11 12 -25 15 -26 7 -32 20 -15 31
6 3 10 12 10 20 0 20 57 73 83 77 12 2 34 -1 49 -6 21 -8 26 -16 26 -42z m36
-229 c-4 -8 -15 -15 -26 -15 -10 0 -17 -4 -13 -9 3 -5 1 -12 -4 -15 -19 -12
-21 14 -4 33 22 24 55 28 47 6z m-508 -101 c-4 -9 -9 -15 -11 -12 -3 3 -3 13
1 22 4 9 9 15 11 12 3 -3 3 -13 -1 -22z m134 0 c0 -14 -12 -19 -23 -8 -9 9 4
35 14 28 5 -3 9 -12 9 -20z m-150 -68 c0 -39 -8 -50 -27 -35 -16 14 -17 51 -1
67 17 17 28 5 28 -32z m-580 -16 c27 17 67 12 73 -9 6 -23 -10 -42 -29 -34 -8
3 -14 0 -14 -6 0 -17 -47 -13 -54 5 -9 23 -7 62 2 47 5 -8 13 -9 22 -3z m409
-20 c14 -7 20 -17 17 -27 -3 -8 -6 -21 -6 -29 0 -25 -28 -15 -65 23 -35 36
-40 45 -29 55 7 7 52 -5 83 -22z m784 -23 c23 -12 24 -14 10 -41 -14 -26 -15
-27 -34 -11 -10 10 -18 28 -17 41 3 28 7 29 41 11z m-1160 -214 c-7 -2 -21 -2
-30 0 -10 3 -4 5 12 5 17 0 24 -2 18 -5z m64 -85 c7 -5 21 -7 32 -3 10 3 22 1
26 -5 4 -7 12 -7 26 1 18 9 20 8 17 -13 -5 -36 -102 -53 -252 -43 l-116 7 0
28 c0 27 1 27 50 25 28 -1 50 1 50 6 0 11 152 8 167 -3z m-490 -65 c9 -21 17
-58 18 -83 1 -25 6 -55 10 -67 6 -18 4 -23 -10 -23 -12 0 -16 7 -13 24 2 16
-6 33 -26 51 -21 20 -26 29 -17 38 6 6 11 30 11 54 0 24 2 43 6 43 3 0 12 -17
21 -37z m1175 -33 c2 -6 122 -10 306 -12 192 -2 302 -7 302 -13 0 -12 -30 -16
-135 -18 -112 -2 -472 5 -517 11 -47 5 -51 29 -5 35 17 2 35 5 39 5 3 1 8 -2
10 -8z m568 -274 c0 -11 -9 -13 -37 -9 -81 13 -90 21 -25 22 48 1 62 -2 62
-13z m-1272 -26 c20 -1 72 -44 72 -61 0 -8 -15 -10 -54 -5 -41 4 -57 2 -66 -9
-16 -19 -30 -19 -30 0 0 10 -10 15 -27 15 -24 1 -25 2 -10 11 9 5 17 16 17 23
0 15 73 47 78 34 2 -4 11 -8 20 -8z"/>
<path d="M2894 2853 c-16 -3 -20 -9 -17 -24 7 -24 23 -25 24 -1 0 10 3 12 6 5
7 -19 27 -16 48 7 18 20 17 20 -11 19 -16 -1 -39 -4 -50 -6z"/>
<path d="M2840 2820 c-8 -5 -12 -11 -9 -14 2 -3 11 -1 19 4 8 5 12 11 9 14 -2
3 -11 1 -19 -4z"/>
<path d="M2851 2684 c-19 -14 -30 -44 -16 -44 14 0 65 31 65 39 0 17 -28 19
-49 5z"/>
<path d="M1020 3059 c0 -5 5 -7 10 -4 6 3 10 8 10 11 0 2 -4 4 -10 4 -5 0 -10
-5 -10 -11z"/>
<path d="M3195 2771 c-7 -12 -5 -13 43 -17 22 -1 32 2 29 9 -5 15 -63 21 -72
8z"/>
<path d="M3128 2753 c-28 -7 -21 -17 25 -36 33 -13 46 -25 56 -52 13 -36 28
-44 48 -24 18 18 66 6 79 -19 17 -35 23 -37 39 -16 23 31 18 52 -15 59 -18 4
-27 11 -24 17 5 7 -2 9 -20 4 -20 -5 -26 -3 -26 9 0 12 -6 15 -22 9 -29 -9
-59 -8 -67 4 -3 5 -14 11 -23 15 -10 3 -18 13 -18 22 0 15 -2 16 -32 8z"/>
<path d="M3352 2718 c4 -29 38 -38 38 -10 0 11 -7 23 -16 26 -24 9 -26 8 -22
-16z"/>
<path d="M3086 2675 c-3 -8 -1 -15 4 -15 6 0 10 7 10 15 0 8 -2 15 -4 15 -2 0
-6 -7 -10 -15z"/>
<path d="M3050 2630 c0 -28 30 -60 57 -60 16 0 23 6 23 19 0 11 7 26 15 35 8
8 15 17 15 19 0 2 -25 5 -55 6 -49 1 -55 -1 -55 -19z"/>
<path d="M3233 2594 c-8 -21 28 -57 49 -49 22 9 31 35 17 51 -16 19 -58 18
-66 -2z"/>
<path d="M2855 2546 c-23 -19 -25 -23 -12 -34 10 -9 22 -10 39 -3 27 10 53 37
41 44 -27 14 -43 13 -68 -7z"/>
<path d="M3336 2563 c-14 -14 -4 -32 24 -47 17 -8 30 -10 30 -5 0 5 -4 9 -10
9 -5 0 -10 9 -10 19 0 19 -23 35 -34 24z"/>
<path d="M3195 2536 c-21 -9 -26 -14 -16 -20 8 -5 16 -4 21 4 5 9 9 9 14 1 11
-18 26 -13 26 9 0 23 -4 24 -45 6z"/>
<path d="M3263 2512 c-13 -8 -6 -62 8 -62 5 0 9 9 9 19 0 11 5 21 11 23 7 2 6
8 -3 15 -7 7 -19 9 -25 5z"/>
<path d="M3315 2510 c3 -5 8 -10 11 -10 2 0 4 5 4 10 0 6 -5 10 -11 10 -5 0
-7 -4 -4 -10z"/>
<path d="M2788 2483 c7 -3 16 -2 19 1 4 3 -2 6 -13 5 -11 0 -14 -3 -6 -6z"/>
<path d="M3055 2473 c4 -10 10 -28 13 -41 2 -13 11 -26 19 -29 19 -8 37 12 27
29 -5 7 -8 22 -9 33 0 15 -8 21 -29 23 -25 3 -28 1 -21 -15z"/>
<path d="M2714 2465 c-16 -13 -17 -16 -4 -25 33 -22 84 2 58 28 -16 16 -30 15
-54 -3z"/>
<path d="M3161 2466 c-10 -12 -8 -17 8 -25 19 -11 51 -6 51 8 0 11 -23 31 -36
31 -6 0 -17 -6 -23 -14z"/>
<path d="M3000 2419 c0 -29 29 -57 40 -39 10 17 -9 60 -27 60 -7 0 -13 -9 -13
-21z"/>
<path d="M3105 2377 c-24 -23 -27 -30 -15 -37 21 -13 25 -13 44 9 11 12 14 25
9 38 -8 18 -10 18 -38 -10z"/>
<path d="M1080 2085 c0 -14 5 -25 10 -25 6 0 10 11 10 25 0 14 -4 25 -10 25
-5 0 -10 -11 -10 -25z"/>
<path d="M1100 1986 c0 -16 34 -31 49 -21 6 3 8 12 4 20 -7 19 -53 20 -53 1z"/>
<path d="M1731 898 c-15 -24 6 -58 37 -58 33 0 96 -35 185 -102 43 -33 73 -51
65 -39 -7 11 -47 46 -90 78 -43 31 -76 58 -74 60 3 3 46 -25 117 -76 10 -7 19
-11 19 -8 0 7 -106 87 -135 103 -11 5 -38 11 -60 13 -48 2 -61 11 -17 11 18 0
32 5 32 10 0 6 12 10 28 10 18 0 23 -3 14 -9 -10 -6 -1 -16 33 -35 53 -29 59
-31 49 -14 -4 7 -3 8 5 4 6 -4 9 -11 6 -16 -3 -5 0 -12 6 -16 8 -4 9 -3 5 4
-12 19 3 14 40 -14 52 -40 52 -22 1 21 -95 80 -237 119 -266 73z"/>
<path d="M2120 751 c0 -12 5 -21 10 -21 6 0 10 6 10 14 0 8 -4 18 -10 21 -5 3
-10 -3 -10 -14z"/>
<path d="M2096 699 c17 -49 6 -71 -23 -48 -11 9 -10 4 5 -16 13 -16 32 -45 44
-62 21 -34 45 -46 34 -17 -4 10 -9 50 -13 90 -3 41 -10 71 -15 68 -5 -3 -18 2
-28 11 -18 16 -18 15 -4 -26z"/>
<path d="M1890 580 c0 -5 -9 -19 -20 -30 -31 -31 -24 -44 9 -18 29 22 42 58
21 58 -5 0 -10 -4 -10 -10z"/>
<path d="M2020 555 c-8 -9 -5 -14 9 -18 11 -3 25 1 31 8 8 9 5 14 -9 18 -11 3
-25 -1 -31 -8z"/>
<path d="M2066 521 c-10 -18 -12 -30 -6 -26 12 7 9 -8 -7 -52 -8 -21 2 -15 24
15 17 22 20 36 14 63 l-7 34 -18 -34z"/>
<path d="M1992 458 c-1 -20 -9 -44 -18 -53 -22 -22 -28 -12 -16 23 5 16 7 35
2 41 -10 17 -22 -62 -13 -85 4 -12 3 -15 -5 -10 -8 4 -10 2 -6 -7 3 -8 -9 -31
-26 -51 -20 -23 -26 -34 -15 -30 15 6 16 4 6 -15 -11 -20 -11 -21 7 -10 22 14
56 66 58 89 1 8 9 30 18 48 10 19 15 47 13 65 -4 31 -4 31 -5 -5z"/>
<path d="M2171 366 c-20 -48 -21 -59 -10 -102 16 -67 23 -71 48 -31 20 32 20
37 7 106 -8 40 -16 74 -18 77 -3 2 -14 -20 -27 -50z"/>
<path d="M2012 373 c-6 -2 -10 -8 -8 -12 3 -4 1 -24 -4 -45 -5 -21 -5 -35 -1
-30 7 7 33 96 27 93 0 0 -7 -3 -14 -6z"/>
<path d="M1925 252 c-30 -35 -34 -43 -15 -31 28 18 66 66 59 74 -3 2 -23 -17
-44 -43z"/>
<path d="M1824 238 l-29 -33 33 29 c30 28 37 36 29 36 -2 0 -16 -15 -33 -32z"/>
<path d="M1921 216 c-28 -30 -51 -58 -51 -61 0 -12 79 56 100 86 34 47 7 33
-49 -25z"/>
<path d="M2200 179 c-17 -34 -49 -90 -71 -123 -38 -59 -38 -60 -7 -26 18 19
44 49 57 65 l23 30 -21 -39 c-12 -21 -20 -41 -17 -44 3 -2 13 10 23 28 10 18
26 42 36 54 11 11 2 -10 -18 -48 -20 -37 -33 -71 -30 -74 3 -3 5 -1 5 5 0 6 7
14 16 17 14 5 15 4 4 -9 -10 -12 -10 -15 2 -15 23 0 61 77 53 108 -4 15 -9 49
-11 77 -3 27 -7 51 -9 53 -2 2 -18 -24 -35 -59z"/>
<path d="M1814 98 l-29 -33 33 29 c30 28 37 36 29 36 -2 0 -16 -15 -33 -32z"/>
<path d="M1645 40 c-10 -11 -16 -22 -13 -25 3 -3 13 6 22 20 20 30 16 32 -9 5z"/>
</g>
</svg>
