<?xml version="1.0" standalone="no"?>
<!DOCTYPE svg PUBLIC "-//W3C//DTD SVG 20010904//EN"
 "http://www.w3.org/TR/2001/REC-SVG-20010904/DTD/svg10.dtd">
<svg version="1.0" xmlns="http://www.w3.org/2000/svg"
 width="1280.000000pt" height="720.000000pt" viewBox="0 0 1280.000000 720.000000"
 preserveAspectRatio="xMidYMid meet">

<g transform="translate(0.000000,720.000000) scale(0.100000,-0.100000)"
fill="#000000" stroke="none">
<path d="M2695 7185 c55 -7 255 -30 445 -50 190 -20 431 -45 535 -56 105 -11
254 -27 332 -34 80 -8 155 -21 172 -29 27 -14 66 -52 141 -136 33 -36 56 -64
135 -162 l46 -58 -4 -157 c-2 -87 -6 -168 -8 -180 -5 -27 -57 -73 -76 -66 -9
4 -13 -4 -13 -24 0 -22 -7 -33 -25 -41 -14 -6 -25 -18 -25 -25 0 -8 -16 -29
-35 -48 -19 -19 -47 -52 -63 -74 -15 -22 -30 -42 -33 -45 -13 -10 -19 -49 -9
-55 5 -3 10 -27 10 -52 0 -39 -2 -44 -15 -33 -13 11 -15 7 -15 -25 0 -34 2
-37 24 -33 15 3 27 0 30 -8 6 -16 -3 -24 -25 -24 -10 0 -21 -4 -24 -10 -3 -6
1 -7 10 -4 29 12 47 -16 40 -61 -5 -38 -2 -46 26 -76 17 -19 32 -38 33 -44 1
-5 5 -15 9 -22 4 -6 3 -70 -3 -142 -8 -108 -16 -148 -46 -233 -58 -166 -74
-272 -54 -370 10 -51 21 -75 61 -123 60 -74 85 -91 105 -74 8 7 33 50 56 96
22 45 45 83 51 83 16 0 36 33 37 61 0 35 32 74 53 66 13 -5 16 -22 15 -92 0
-49 -6 -92 -12 -98 -26 -30 -35 -54 -23 -67 9 -10 9 -14 -1 -17 -10 -4 -10 -8
-2 -19 15 -17 4 -34 -21 -34 -12 0 -19 -7 -19 -19 0 -10 -7 -24 -15 -31 -11
-9 -14 -22 -9 -44 3 -17 3 -28 -1 -24 -5 5 -13 -2 -20 -15 -9 -18 -18 -22 -54
-20 -53 2 -65 13 -65 58 0 48 -18 30 -50 -51 -35 -87 -35 -158 0 -210 15 -21
31 -42 37 -45 17 -12 19 -225 2 -266 -17 -40 -20 -109 -5 -118 6 -3 10 -21 10
-38 0 -22 11 -44 35 -70 20 -23 37 -53 40 -75 4 -20 12 -55 20 -77 7 -22 16
-58 19 -79 3 -21 17 -56 31 -77 14 -21 25 -50 25 -63 0 -36 16 -72 55 -123 19
-25 35 -56 35 -68 0 -11 9 -40 20 -63 11 -22 20 -48 20 -56 0 -8 5 -18 10 -21
6 -3 10 -31 10 -62 0 -59 30 -140 56 -150 8 -3 14 -10 14 -17 0 -15 75 -92
127 -131 22 -16 41 -34 41 -38 1 -5 12 -17 27 -28 29 -24 124 -31 147 -11 20
16 191 7 221 -12 12 -7 46 -16 75 -19 44 -5 52 -4 53 11 0 9 3 12 5 6 6 -14
56 -6 70 11 5 8 19 13 29 12 11 -1 20 4 20 13 0 10 12 16 36 18 39 3 48 -8 64
-83 4 -16 16 -50 27 -74 11 -25 23 -62 26 -83 2 -21 8 -38 13 -38 4 0 13 -16
19 -35 6 -19 17 -38 23 -42 7 -5 18 -20 24 -35 11 -24 17 -27 96 -33 75 -6 96
-4 178 20 133 38 228 71 349 122 122 52 147 66 255 147 112 84 122 93 380 352
199 200 300 292 481 442 107 89 373 251 413 253 9 0 -4 10 -29 23 -155 78
-173 91 -263 189 -51 54 -99 111 -107 125 -8 15 -25 44 -38 65 -13 22 -21 46
-18 54 4 9 2 21 -3 27 -5 6 -11 118 -12 251 -1 136 -6 245 -12 252 -5 7 -7 19
-4 27 3 8 -1 22 -8 33 -8 10 -15 34 -15 54 0 20 -15 65 -35 105 -39 78 -42 96
-19 139 20 36 25 190 8 226 -21 44 -36 106 -37 150 -1 24 -7 49 -13 56 -6 7
-12 47 -12 93 -1 44 -6 89 -12 100 -6 11 -8 30 -4 44 3 13 1 27 -5 30 -6 4
-11 20 -11 37 0 16 -4 29 -10 29 -5 0 -10 6 -10 13 0 8 -9 40 -19 73 -18 53
-19 61 -5 82 14 22 14 25 -11 48 -21 19 -24 28 -16 38 12 14 2 27 -32 39 -13
5 -16 13 -11 31 4 19 0 31 -18 48 -30 28 -99 125 -96 135 0 5 -4 19 -10 33 -9
22 -11 23 -12 5 l-1 -20 -8 20 c-5 11 -6 26 -4 33 4 8 0 10 -11 6 -12 -5 -20
2 -29 25 -6 17 -18 31 -25 31 -9 0 -12 7 -9 20 3 10 -2 25 -10 31 -12 11 -13
8 -8 -14 4 -15 5 -27 1 -27 -9 0 -116 111 -116 121 0 5 -3 8 -7 7 -13 -5 -92
56 -96 74 -5 19 -151 90 -176 86 -9 -1 -27 5 -41 15 -14 10 -43 17 -67 17 -28
0 -42 4 -40 12 1 6 -6 14 -17 16 -11 2 -16 0 -12 -7 4 -6 0 -11 -11 -11 -25 0
-173 29 -184 36 -5 3 -46 5 -91 5 -44 0 -121 6 -169 15 -51 9 -134 14 -196 13
-139 -3 -290 6 -306 18 -22 18 -66 21 -69 5 -4 -18 -139 -26 -150 -8 -5 8 -11
7 -20 -2 -6 -6 -20 -12 -30 -12 -11 0 -18 -7 -18 -19 0 -23 -22 -40 -28 -23
-5 17 -37 15 -53 -5 -18 -21 -102 -58 -154 -67 -22 -4 -57 -18 -77 -32 -65
-42 -66 -39 -73 101 -5 107 -6 108 -48 170 -61 91 -187 236 -296 343 l-64 62
-861 -1 c-753 -1 -849 -3 -761 -14z m1573 -1212 c-4 -34 -38 -46 -38 -13 0 12
5 18 10 15 6 -3 10 1 10 9 0 9 5 16 11 16 6 0 9 -12 7 -27z m739 21 c-3 -3
-12 -4 -19 -1 -8 3 -5 6 6 6 11 1 17 -2 13 -5z m-47 -34 c0 -5 8 -10 19 -10
10 0 21 -8 24 -19 12 -46 -51 -78 -85 -42 -10 12 -23 21 -28 21 -10 0 -3 27
13 48 11 14 57 16 57 2z m-105 -350 c3 -5 17 -10 31 -10 30 0 31 -16 2 -24
-38 -10 -88 -7 -88 5 0 12 29 38 42 39 4 0 10 -4 13 -10z m185 -40 c0 -5 -4
-10 -10 -10 -5 0 -10 5 -10 10 0 6 5 10 10 10 6 0 10 -4 10 -10z m1820 -441
c0 -5 -4 -9 -10 -9 -5 0 -10 7 -10 16 0 8 5 12 10 9 6 -3 10 -10 10 -16z m24
-55 c11 -28 6 -38 -9 -18 -8 10 -15 22 -15 27 0 13 18 7 24 -9z m-1636 -37 c3
-12 -3 -17 -22 -17 -25 0 -35 18 -19 34 12 12 38 2 41 -17z m1477 -8 c11 -17
-1 -21 -15 -4 -8 9 -8 15 -2 15 6 0 14 -5 17 -11z m-1580 -38 c-3 -6 -11 -11
-17 -11 -6 0 -6 6 2 15 14 17 26 13 15 -4z m1682 -286 c9 -24 0 -25 -26 -4
-23 19 -23 19 -2 19 12 0 24 -7 28 -15z m-2143 -201 c21 -8 20 -43 -1 -60 -16
-12 -16 -15 -3 -23 19 -13 6 -26 -17 -16 -10 4 -37 8 -60 9 -41 1 -43 2 -43
33 0 28 5 33 43 46 49 18 60 19 81 11z"/>
<path d="M9196 6645 c-9 -26 -7 -32 5 -12 6 10 9 21 6 23 -2 3 -7 -2 -11 -11z"/>
<path d="M9157 6537 c-20 -19 -37 -42 -37 -51 0 -8 -6 -13 -12 -11 -7 3 -37
-13 -66 -35 -29 -22 -59 -40 -67 -40 -8 0 -15 -7 -15 -15 0 -8 -3 -15 -8 -15
-4 0 -22 -13 -40 -30 -18 -16 -71 -60 -119 -97 -47 -37 -96 -76 -108 -88 -12
-11 -32 -27 -43 -35 -12 -9 -36 -29 -54 -46 -18 -16 -49 -40 -68 -54 -19 -13
-37 -27 -40 -30 -4 -5 -73 -61 -152 -125 -10 -8 -14 -22 -11 -34 4 -16 1 -21
-13 -21 -11 0 -26 -4 -34 -10 -12 -7 -11 -10 5 -16 11 -4 23 -12 27 -18 12
-17 9 -84 -3 -88 -7 -2 -4 -12 8 -26 18 -23 19 -23 40 -5 23 20 41 34 113 84
25 18 49 38 53 45 4 7 41 39 82 70 41 30 75 59 75 63 0 4 14 15 31 25 18 10
39 26 49 35 9 9 28 25 41 35 13 11 53 45 89 76 36 31 76 63 90 70 14 7 29 19
33 26 4 8 11 14 15 14 4 0 39 29 77 65 39 36 73 65 78 65 4 0 7 18 7 40 0 22
5 40 10 40 6 0 10 18 10 40 0 37 -2 40 -27 40 l-28 1 25 14 c22 12 25 12 28
-1 4 -15 62 -20 62 -5 0 5 -13 20 -29 33 -15 13 -30 30 -32 37 -3 7 -18 -1
-42 -22z m-37 -107 c0 -5 -10 -10 -22 -10 -19 0 -20 2 -8 10 19 13 30 13 30 0z
m0 -140 c0 -5 -7 -7 -15 -4 -8 4 -15 8 -15 10 0 2 7 4 15 4 8 0 15 -4 15 -10z
m-753 -446 c-3 -3 -12 -4 -19 -1 -8 3 -5 6 6 6 11 1 17 -2 13 -5z m53 -103 c0
-6 -4 -13 -10 -16 -5 -3 -10 1 -10 9 0 9 5 16 10 16 6 0 10 -4 10 -9z"/>
<path d="M9295 6440 c-26 -29 -15 -32 15 -4 13 13 20 24 14 24 -6 0 -19 -9
-29 -20z"/>
<path d="M9203 6373 c0 -12 3 -23 7 -23 3 0 16 11 28 23 l22 24 -29 0 c-23 0
-28 -5 -28 -24z"/>
<path d="M0 5286 l0 -114 78 -6 c112 -10 564 -26 652 -24 59 1 64 2 25 5 -27
2 -54 8 -59 13 -6 6 11 7 43 3 37 -4 55 -2 61 6 4 8 52 17 121 23 63 5 116 14
117 19 2 5 21 9 43 9 21 0 39 5 39 10 0 6 9 10 20 10 10 0 24 9 30 20 10 19 7
20 -67 21 -43 1 -81 1 -85 0 -5 0 -8 3 -8 8 0 10 84 8 197 -4 52 -5 73 -4 73
4 0 6 -17 11 -41 11 -22 0 -82 4 -132 10 -94 10 -213 20 -552 45 -104 8 -269
21 -365 30 -96 8 -178 15 -182 15 -5 0 -8 -51 -8 -114z"/>
<path d="M1840 5351 c0 -4 28 -11 61 -15 88 -9 99 -8 99 9 0 12 -16 15 -80 15
-44 0 -80 -4 -80 -9z"/>
<path d="M2077 5336 c4 -20 1 -21 -76 -18 -53 2 -81 0 -81 -7 0 -6 18 -11 40
-11 22 0 40 -4 40 -10 0 -5 12 -13 28 -16 42 -11 82 -45 82 -70 0 -13 5 -26
10 -29 6 -3 10 -1 10 4 0 6 5 11 11 11 6 0 9 -10 7 -22 -2 -13 -10 -23 -18
-23 -8 0 -16 -7 -16 -15 -1 -8 -2 -20 -3 -27 -2 -19 -70 -53 -108 -53 -51 0
-111 36 -118 72 -5 23 -11 28 -26 23 -10 -4 -19 -2 -19 3 0 5 9 12 19 15 13 3
22 17 27 42 8 45 -7 65 -31 41 -9 -9 -28 -16 -42 -16 -22 0 -24 3 -19 25 5 20
3 25 -14 25 -11 0 -20 -5 -20 -11 0 -8 -24 -9 -82 -3 -46 4 -105 8 -133 8 -27
0 -53 5 -56 10 -7 9 -88 11 -97 2 -3 -3 12 -6 34 -7 21 0 33 -3 27 -6 -27 -10
-11 -23 27 -23 38 0 40 -2 40 -30 0 -28 2 -30 40 -30 23 0 40 -5 40 -11 0 -8
-24 -9 -80 -4 -70 6 -80 5 -80 -9 0 -12 -10 -16 -40 -16 -30 0 -40 -4 -40 -16
0 -14 -16 -15 -120 -12 -66 2 -120 1 -120 -3 0 -3 66 -9 148 -13 81 -3 158 -8
172 -10 14 -3 93 -10 175 -16 148 -11 150 -12 175 -41 31 -36 40 -37 41 -1 0
15 3 21 6 15 6 -16 40 -17 45 -1 3 8 15 5 40 -10 42 -26 100 -29 123 -6 9 9
23 13 32 10 9 -4 20 -2 23 5 6 8 9 8 14 0 4 -6 2 -11 -3 -11 -6 0 -11 -7 -11
-15 0 -8 5 -15 10 -15 6 0 10 -4 10 -8 0 -4 -16 -8 -36 -9 -64 -2 -60 -21 5
-30 37 -5 45 -2 75 28 33 35 33 35 39 159 l6 125 -30 31 c-17 18 -48 36 -68
42 -35 8 -37 8 -34 -12z m55 -28 c-9 -9 -15 -9 -24 0 -9 9 -7 12 12 12 19 0
21 -3 12 -12z m6 -26 c9 -7 10 -15 3 -35 -14 -36 -25 -34 -18 2 4 19 2 31 -6
35 -7 2 -7 5 -2 5 6 0 16 -3 23 -7z m-475 -79 c-13 -2 -33 -2 -45 0 -13 2 -3
4 22 4 25 0 35 -2 23 -4z m514 -65 c-2 -13 -4 -3 -4 22 0 25 2 35 4 23 2 -13
2 -33 0 -45z m-7 -108 c0 -5 -4 -10 -9 -10 -6 0 -13 5 -16 10 -3 6 1 10 9 10
9 0 16 -4 16 -10z"/>
<path d="M1795 5309 c-11 -17 1 -21 15 -4 8 9 8 15 2 15 -6 0 -14 -5 -17 -11z"/>
<path d="M1911 5264 c0 -11 3 -14 6 -6 3 7 2 16 -1 19 -3 4 -6 -2 -5 -13z"/>
<path d="M1958 5273 c7 -3 16 -2 19 1 4 3 -2 6 -13 5 -11 0 -14 -3 -6 -6z"/>
<path d="M1190 5215 c0 -11 12 -15 45 -15 33 0 45 4 45 15 0 11 -12 15 -45 15
-33 0 -45 -4 -45 -15z"/>
<path d="M840 5153 c0 -5 11 -13 24 -19 20 -9 23 -9 18 8 -4 17 -42 27 -42 11z"/>
<path d="M1840 5020 c0 -5 15 -10 34 -10 19 0 38 5 41 10 4 6 -10 10 -34 10
-23 0 -41 -4 -41 -10z"/>
<path d="M1980 4990 c0 -5 5 -10 10 -10 6 0 10 5 10 10 0 6 -4 10 -10 10 -5 0
-10 -4 -10 -10z"/>
<path d="M11727 4475 c-63 -22 -100 -86 -100 -172 0 -121 122 -213 229 -173
15 6 45 27 67 46 l39 35 136 -5 c75 -3 234 -8 352 -11 118 -3 245 -8 283 -12
l67 -6 0 96 0 95 -277 6 c-153 3 -346 9 -429 14 l-152 7 -41 41 c-54 54 -102
65 -174 39z m117 -106 c21 -16 26 -29 26 -64 0 -84 -82 -116 -135 -53 -67 80
27 181 109 117z"/>
<path d="M442 2998 c-16 -16 -16 -87 1 -93 6 -3 48 -6 92 -7 79 -3 80 -3 83
-30 l3 -28 -79 0 c-58 0 -83 4 -92 15 -15 18 -30 11 -30 -15 0 -25 19 -30 125
-30 l93 0 12 29 c26 64 -7 91 -111 91 -68 0 -91 14 -66 39 14 14 140 14 154 0
18 -18 35 -1 23 22 -9 17 -22 19 -103 19 -59 0 -97 -4 -105 -12z"/>
<path d="M1340 2910 c-25 -38 -48 -70 -51 -70 -11 0 -18 -40 -7 -40 5 0 17 9
26 20 13 15 31 20 82 21 36 1 75 -1 88 -5 13 -4 22 -3 22 3 0 19 -25 25 -86
22 -37 -1 -64 2 -68 8 -4 6 -2 11 3 11 6 0 11 6 11 14 0 7 10 25 21 40 l21 27
25 -23 25 -23 -19 32 c-10 18 -25 33 -33 33 -8 -1 -35 -32 -60 -70z"/>
<path d="M3609 2903 c-5 -15 -9 -54 -7 -87 3 -59 4 -61 33 -66 17 -3 56 -3 89
0 45 5 63 11 77 29 19 23 25 74 13 106 -11 28 -60 45 -129 45 -62 0 -66 -1
-76 -27z m117 7 c100 0 97 -139 -4 -141 -20 0 -48 -2 -60 -3 -29 -3 -42 25
-42 90 0 37 4 46 23 54 12 5 28 7 35 4 8 -2 29 -4 48 -4z"/>
<path d="M4400 2826 c0 -99 -3 -96 110 -96 94 0 100 6 100 97 0 61 -14 102
-24 73 -3 -8 -7 -44 -8 -80 l-3 -65 -70 0 -70 0 -3 78 c-2 59 -6 77 -17 77
-12 0 -15 -17 -15 -84z"/>
<path d="M11720 2803 c-14 -3 -46 -25 -72 -49 l-48 -45 -102 6 c-57 3 -308 10
-558 15 -250 6 -520 15 -600 21 -142 10 -603 29 -607 25 -5 -5 93 -69 104 -69
7 0 11 -5 10 -10 -1 -5 29 -33 68 -63 l70 -54 140 0 c77 0 201 -5 275 -10 74
-5 250 -12 390 -15 222 -4 529 -17 725 -30 33 -2 68 -4 78 -4 10 -1 37 -22 60
-47 34 -36 53 -48 88 -54 67 -13 116 2 156 47 l34 37 97 -2 c53 -2 115 -5 137
-8 22 -2 148 -9 280 -14 132 -5 266 -13 298 -16 l57 -7 0 110 0 111 -237 6
c-131 3 -325 9 -431 12 l-193 6 -49 48 c-34 33 -59 49 -87 53 -40 7 -43 7 -83
0z m-860 -123 c0 -22 5 -40 10 -40 6 0 10 -11 10 -25 0 -29 -11 -32 -32 -7
-10 12 -13 32 -10 65 5 57 22 63 22 7z m938 19 c60 -21 81 -95 41 -150 -44
-62 -146 -24 -150 56 -2 51 7 72 40 90 32 17 31 17 69 4z"/>
<path d="M3425 2166 c-109 -28 -186 -75 -284 -176 -71 -73 -238 -278 -266
-327 l-19 -32 -14 30 c-19 39 -38 48 -112 56 -44 4 -65 11 -75 25 -11 17 -22
19 -72 15 -32 -2 -85 -11 -118 -20 -33 -9 -75 -16 -93 -17 -30 0 -31 2 -20 20
7 11 21 20 30 20 10 0 18 4 18 8 0 5 16 16 36 25 19 10 40 22 47 27 54 44 66
58 69 85 3 25 -3 33 -42 57 -103 64 -312 34 -490 -71 -8 -5 -40 -21 -70 -36
-48 -23 -158 -90 -198 -120 -20 -15 -143 -135 -138 -135 2 0 -21 -26 -51 -57
-30 -32 -61 -70 -69 -85 -8 -16 -18 -28 -23 -28 -5 0 -14 -13 -19 -29 -5 -15
-21 -40 -33 -54 -13 -14 -36 -39 -51 -56 -16 -16 -28 -34 -28 -40 0 -6 -13
-17 -30 -26 -16 -9 -30 -22 -30 -30 0 -29 -25 -67 -53 -82 -25 -13 -79 -14
-391 -9 -198 4 -394 9 -435 12 -70 6 -74 7 -84 35 -10 26 -16 29 -54 29 -24 0
-43 5 -43 10 0 6 5 10 10 10 6 0 10 23 10 50 0 48 -1 50 -20 40 -14 -8 -26 -8
-40 0 -39 21 -20 36 38 31 14 -1 22 4 22 14 0 12 -6 15 -20 10 -11 -3 -29 -3
-40 0 -18 6 -20 15 -20 91 l0 84 -40 0 -40 0 0 49 c0 42 -5 54 -31 80 -17 17
-35 31 -40 31 -5 0 -9 -333 -9 -840 l0 -840 1637 0 c1628 0 1636 0 1618 20
-17 19 -17 21 1 47 l19 28 3 -47 c3 -40 6 -48 23 -48 12 0 19 7 19 18 0 10 30
70 66 133 37 62 77 132 89 154 12 22 32 58 45 80 13 22 33 58 45 80 12 22 37
67 55 100 18 33 44 81 58 107 18 35 32 49 53 53 30 7 129 89 129 108 0 5 17
33 38 61 48 64 116 180 149 254 14 31 33 75 43 97 96 214 119 315 101 437 -15
94 -47 159 -117 236 -52 58 -194 162 -220 162 -6 0 -17 6 -24 14 -17 21 -134
63 -211 75 -82 14 -130 13 -194 -3z m-610 -618 c-4 -13 -20 -50 -35 -83 -15
-33 -30 -72 -34 -87 -4 -18 -14 -29 -29 -32 -12 -2 -49 -9 -82 -15 -33 -5 -91
-17 -130 -26 -126 -28 -177 -35 -194 -25 -10 6 -11 10 -3 10 6 0 12 7 12 14 0
8 30 29 66 46 36 18 74 39 83 48 27 26 67 46 181 91 58 22 119 50 135 60 38
25 38 25 30 -1z m303 -533 c92 -8 91 -8 172 -103 45 -54 52 -67 42 -82 -8 -13
-8 -27 0 -53 10 -31 7 -41 -22 -93 -58 -102 -59 -103 -210 -87 -48 5 -64 10
-67 24 -5 18 -31 30 -71 33 -12 1 -29 12 -37 23 -9 12 -21 28 -28 35 -26 26
-67 93 -67 109 0 9 18 48 41 86 36 64 44 71 78 77 28 4 40 12 44 27 4 14 11
19 24 16 10 -3 55 -9 101 -12z m-624 -82 c-36 -56 -49 -72 -61 -73 -6 0 -18
-6 -25 -12 -19 -19 -150 -50 -161 -39 -12 12 0 31 18 31 8 0 19 9 25 20 12 23
88 64 137 75 18 3 35 11 38 16 4 5 15 9 27 9 20 0 20 -1 2 -27z m-1314 -106
c0 -6 -5 -28 -11 -47 -6 -19 -10 -77 -9 -127 0 -65 -3 -93 -11 -93 -8 0 -10
-18 -5 -63 4 -46 2 -68 -8 -82 -8 -12 -12 -33 -8 -57 4 -36 3 -38 -22 -38 -25
0 -26 2 -26 55 0 48 -2 55 -20 55 -17 0 -20 -7 -20 -40 0 -38 -2 -40 -30 -40
-20 0 -30 5 -30 15 0 8 -4 15 -10 15 -8 0 -14 -31 -12 -60 0 -3 -17 -4 -39 -2
-36 4 -39 7 -39 33 0 27 -3 29 -36 29 -44 0 -62 17 -66 61 -2 19 -9 35 -15 35
-7 1 -20 2 -28 3 -11 1 -15 14 -15 56 0 30 -4 55 -10 55 -5 0 -10 -7 -10 -15
0 -10 -10 -15 -30 -15 -27 0 -30 3 -30 30 0 29 -1 30 -50 30 -27 0 -50 5 -50
10 0 6 -7 10 -15 10 -11 0 -15 11 -15 40 0 29 -4 40 -15 40 -21 0 -20 69 1 84
12 9 7 11 -25 8 -23 -2 -54 0 -69 4 -43 14 93 20 456 22 253 2 322 -1 322 -11z
m1454 -53 c51 -29 53 -32 30 -75 -22 -43 -8 -50 22 -11 24 31 64 44 64 21 0
-6 -15 -27 -34 -47 -19 -21 -45 -49 -57 -64 -20 -21 -28 -25 -46 -18 -28 11
-29 25 -3 92 12 31 16 56 11 61 -14 14 -29 0 -56 -54 -25 -48 -50 -63 -61 -35
-3 7 8 36 25 63 20 32 28 56 24 71 -8 31 22 29 81 -4z m156 -89 c7 -8 19 -15
27 -15 22 0 73 -32 73 -46 0 -7 8 -10 18 -8 9 3 25 -1 35 -8 17 -12 16 -16 -7
-75 -13 -35 -21 -65 -17 -67 4 -3 21 20 37 50 31 57 38 61 78 42 36 -16 42
-45 17 -79 -12 -15 -21 -36 -21 -46 0 -13 13 -4 45 30 38 42 47 47 64 37 25
-13 26 -27 5 -79 -27 -69 -12 -82 21 -18 34 64 49 70 92 33 27 -24 28 -25 11
-53 -9 -15 -26 -47 -37 -70 -18 -40 -38 -53 -54 -37 -4 4 1 20 10 35 23 39 7
50 -21 14 l-24 -29 -36 19 c-20 11 -35 26 -33 35 1 11 -5 14 -23 12 -14 -1
-39 5 -57 15 -31 16 -31 17 -17 46 21 39 8 48 -19 14 l-22 -27 -38 17 c-29 13
-36 21 -31 36 5 17 2 18 -25 12 -38 -8 -51 14 -24 43 55 58 76 92 55 92 -17 0
-41 -26 -62 -67 -14 -28 -29 -43 -41 -43 -26 0 -24 14 12 76 28 50 31 74 8 74
-5 0 -23 -25 -40 -55 -20 -37 -37 -55 -50 -55 -27 0 -24 19 11 73 17 26 30 51
30 55 0 10 22 32 31 32 4 0 12 -7 19 -15z m-440 -175 c0 -5 12 -17 28 -25 15
-9 19 -14 9 -11 -10 3 -22 6 -27 6 -5 0 -11 9 -15 19 -3 11 -19 22 -35 26 -36
8 -46 21 -30 41 11 12 17 10 41 -16 16 -16 29 -34 29 -40z m1026 -130 c1 -27
-2 -30 -27 -30 -29 0 -38 -13 -19 -25 22 -14 10 -35 -20 -35 -33 0 -39 -16
-12 -36 13 -9 14 -16 6 -24 -14 -14 -74 13 -74 33 1 29 70 131 97 142 37 16
48 11 49 -25z m-1191 -61 c-9 -38 11 -79 37 -79 10 0 18 -4 18 -9 0 -4 23 -22
50 -39 28 -17 50 -36 50 -42 0 -13 -6 -13 -30 3 -17 10 -22 9 -29 -1 -10 -17
-42 -4 -39 17 2 12 -3 15 -20 13 -30 -4 -54 16 -47 39 4 11 2 19 -4 19 -6 0
-11 -6 -12 -12 -1 -19 -28 44 -29 66 0 23 27 56 47 56 11 0 13 -8 8 -31z
m-1125 -9 c0 -5 -18 -10 -40 -10 -22 0 -40 5 -40 10 0 6 18 10 40 10 22 0 40
-4 40 -10z m1270 -227 c0 -9 -62 -63 -72 -63 -17 0 -6 18 24 44 32 26 48 32
48 19z"/>
<path d="M960 415 c0 -8 5 -15 10 -15 6 0 10 7 10 15 0 8 -4 15 -10 15 -5 0
-10 -7 -10 -15z"/>
<path d="M3000 510 c0 -5 5 -10 10 -10 6 0 10 5 10 10 0 6 -4 10 -10 10 -5 0
-10 -4 -10 -10z"/>
<path d="M3210 400 c-13 -8 -12 -10 3 -10 9 0 17 5 17 10 0 12 -1 12 -20 0z"/>
<path d="M12740 1078 c0 -34 -3 -38 -25 -38 -25 0 -25 -1 -25 -80 0 -79 0 -80
-25 -80 -22 0 -25 -4 -25 -39 0 -34 3 -39 20 -36 12 2 20 -2 20 -10 0 -8 -9
-20 -20 -27 -11 -7 -20 -21 -20 -30 0 -10 -4 -18 -10 -18 -5 0 -10 -18 -10
-40 0 -33 -3 -40 -20 -40 -17 0 -20 7 -20 40 0 22 -4 40 -9 40 -6 0 -11 17
-13 37 -2 20 -7 38 -13 40 -6 2 -9 -27 -7 -77 2 -44 8 -80 13 -80 5 0 9 -18 9
-40 l0 -40 -40 0 -40 0 0 -40 c0 -29 -4 -40 -15 -40 -11 0 -15 -11 -15 -40 0
-29 -4 -40 -15 -40 -11 0 -15 -11 -15 -40 0 -36 -3 -40 -25 -40 -13 0 -36 -11
-51 -24 -52 -47 -64 -56 -74 -56 -5 0 -10 -18 -10 -40 0 -22 -4 -40 -10 -40
-5 0 -10 14 -10 30 0 17 -4 30 -8 30 -16 0 -72 -70 -72 -90 0 -17 -6 -20 -40
-20 -34 0 -40 -3 -40 -21 0 -11 -13 -32 -30 -46 -16 -13 -30 -29 -30 -34 0 -5
162 -9 390 -9 l390 0 0 560 0 560 -30 -2 c-28 -2 -30 -5 -30 -40z"/>
<path d="M3995 122 c-13 -9 -17 -70 -5 -77 5 -3 12 10 16 29 7 41 3 58 -11 48z"/>
<path d="M8041 14 c0 -11 3 -14 6 -6 3 7 2 16 -1 19 -3 4 -6 -2 -5 -13z"/>
</g>
</svg>
