<?xml version="1.0" standalone="no"?>
<!DOCTYPE svg PUBLIC "-//W3C//DTD SVG 20010904//EN"
 "http://www.w3.org/TR/2001/REC-SVG-20010904/DTD/svg10.dtd">
<svg version="1.0" xmlns="http://www.w3.org/2000/svg"
 width="540.000000pt" height="413.000000pt" viewBox="0 0 540.000000 413.000000"
 preserveAspectRatio="xMidYMid meet">

<g transform="translate(0.000000,413.000000) scale(0.100000,-0.100000)"
fill="#000000" stroke="none">
<path d="M0 3208 c0 -507 2 -919 5 -916 3 2 14 47 24 99 62 295 168 432 379
488 24 7 51 20 62 31 28 28 55 40 92 40 19 0 42 6 53 14 11 7 45 19 75 26 30
7 68 23 83 36 16 13 35 24 42 24 8 0 24 15 36 33 12 17 38 49 57 69 l35 37
-26 10 c-29 11 -52 51 -92 158 -29 74 -28 122 1 154 22 24 35 24 78 -2 30 -18
36 -26 36 -56 0 -25 -4 -34 -13 -30 -10 4 -12 -3 -9 -23 3 -19 9 -27 18 -23
16 6 17 4 21 -107 3 -83 3 -109 3 -180 0 -44 19 -128 31 -136 5 -2 12 13 15
36 7 44 19 52 27 18 4 -12 9 -19 12 -16 4 4 -4 26 -18 50 -23 40 -47 142 -47
199 0 20 5 24 29 25 27 1 30 -3 41 -45 18 -69 19 -71 28 -71 5 0 7 33 4 73 -3
48 0 82 8 97 11 20 10 22 -3 17 -9 -3 -18 1 -21 9 -3 9 -11 12 -17 8 -8 -4 -9
-3 -5 4 4 6 2 20 -4 32 -33 65 -33 61 6 38 20 -12 38 -27 41 -35 3 -7 11 -13
19 -13 8 0 11 6 8 15 -4 8 -1 15 5 15 6 0 11 -9 11 -20 0 -11 4 -20 9 -20 5 0
12 -12 16 -27 l7 -28 9 23 c7 19 13 22 31 16 13 -4 30 -6 38 -5 60 9 153 3
145 -9 -3 -5 1 -10 9 -10 9 0 18 12 22 28 3 15 7 32 9 37 1 6 -3 19 -11 30
-10 14 -11 22 -2 32 8 11 7 12 -5 7 -9 -3 -19 2 -26 14 -9 17 -16 19 -58 11
-26 -5 -53 -7 -59 -5 -19 7 -108 -23 -117 -39 -4 -8 -19 -15 -32 -15 -24 0
-26 7 -14 77 1 4 0 10 -1 13 -10 24 -6 95 6 107 8 8 12 19 8 24 -3 6 0 17 8
26 11 15 11 16 -6 10 -15 -6 -17 -4 -11 10 10 23 10 33 2 65 -6 21 -2 32 15
48 28 26 57 29 37 3 -12 -15 -12 -16 6 -9 38 16 68 20 61 7 -11 -18 19 -13 45
8 41 31 69 42 118 46 37 3 50 0 61 -15 11 -16 15 -16 27 -4 20 19 47 18 39 -2
-4 -10 -2 -13 6 -8 8 5 9 2 5 -9 -4 -11 -1 -17 7 -17 8 0 16 4 18 10 2 6 8 6
18 0 13 -8 12 -10 -2 -10 -27 0 -21 -14 11 -26 25 -10 30 -19 39 -74 10 -52 9
-65 -3 -74 -8 -6 -17 -23 -20 -38 -5 -21 -3 -27 14 -33 21 -6 37 -38 27 -54
-3 -4 -29 -11 -57 -13 -56 -6 -102 -34 -107 -66 -2 -11 -11 -23 -20 -25 -16
-4 -16 -5 0 -6 12 -1 19 -13 23 -38 3 -21 14 -66 25 -101 18 -57 18 -66 5 -92
-8 -15 -20 -30 -27 -32 -7 -3 7 -8 30 -12 33 -5 42 -10 38 -21 -3 -8 -1 -17 4
-20 15 -9 12 -25 -5 -25 -7 0 -19 8 -24 18 -10 16 -10 16 -11 0 0 -20 -27 -23
-143 -19 -54 3 -72 -1 -87 -14 -11 -10 -20 -23 -20 -29 0 -6 7 -3 14 7 14 18
36 23 36 8 0 -13 54 -28 127 -36 35 -4 60 -11 57 -16 -3 -5 -2 -15 3 -21 4 -7
8 -19 10 -27 1 -7 6 -18 11 -23 6 -6 7 -22 2 -38 -5 -16 -6 -31 -4 -33 3 -3
-9 -15 -27 -27 -24 -18 -43 -23 -83 -21 -96 3 -130 22 -173 95 l-13 21 -6 -22
c-3 -13 -10 -23 -13 -23 -11 0 -46 41 -67 79 -19 35 -49 71 -59 71 -13 0 93
-184 114 -198 13 -9 52 -19 88 -24 35 -4 69 -11 76 -15 22 -14 111 -4 137 15
14 10 41 42 60 70 37 54 61 64 96 37 10 -8 27 -15 37 -15 23 0 22 -17 -3 -25
-24 -8 -34 -43 -26 -89 10 -51 36 -69 146 -101 161 -47 232 -91 307 -192 32
-43 60 -80 63 -83 3 -3 16 -36 29 -75 13 -38 55 -154 92 -256 102 -278 135
-424 130 -567 -2 -70 -8 -66 89 -52 36 5 121 16 190 24 69 8 179 22 245 30
225 28 380 48 415 52 19 2 113 13 209 25 185 23 195 21 189 -26 -3 -18 -22
-22 -208 -46 -113 -14 -290 -36 -395 -48 -174 -20 -358 -44 -540 -70 -38 -6
-96 -13 -127 -16 l-58 -6 0 -45 c0 -42 -1 -45 -23 -38 -39 12 -109 5 -196 -22
-46 -14 -95 -24 -110 -23 -14 1 -34 -1 -43 -5 -10 -3 -26 -9 -35 -12 -10 -4
-40 -9 -68 -10 -27 -2 -69 -6 -92 -10 -42 -5 -43 -6 -43 -43 0 -20 5 -42 12
-49 7 -7 8 -12 3 -12 -6 0 -41 -5 -80 -10 -38 -4 -101 -11 -140 -15 -38 -3
-114 -12 -168 -18 -86 -11 -97 -11 -95 2 6 32 290 91 339 71 14 -6 39 -9 55
-6 16 2 32 5 37 5 4 1 7 15 7 31 0 35 3 35 -132 18 -94 -11 -99 -11 -148 12
-56 26 -120 31 -245 18 -151 -16 -158 -19 -212 -65 -74 -62 -104 -72 -211 -70
-51 1 -92 -1 -92 -5 0 -4 5 -18 11 -32 11 -23 13 -23 45 -10 39 16 42 12 14
-23 -26 -33 -27 -76 -2 -69 18 5 187 27 351 46 52 6 102 15 113 21 23 12 337
59 355 52 6 -3 18 -1 24 3 7 4 24 8 38 9 14 1 66 8 116 15 66 10 84 15 70 22
-16 7 -15 8 8 5 15 -3 27 -1 27 3 0 10 36 22 74 26 15 1 58 9 95 17 57 13 117
25 209 43 12 2 22 0 22 -5 0 -10 -29 -23 -38 -17 -4 2 -14 -3 -22 -12 -13 -14
-12 -15 4 -9 14 5 17 3 12 -8 -4 -12 3 -15 35 -15 32 0 42 4 46 20 3 11 9 20
14 20 5 0 6 -7 2 -16 -5 -14 -1 -16 23 -11 16 4 57 9 92 11 56 4 66 8 100 42
l37 37 9 -26 c10 -28 20 -31 92 -28 l42 3 6 -69 c3 -37 8 -111 11 -163 16
-298 26 -370 80 -597 29 -126 59 -254 66 -286 l12 -57 439 0 c392 0 438 2 438
16 0 8 28 68 62 131 34 64 55 112 47 108 -8 -5 -48 -34 -89 -65 -41 -31 -80
-60 -87 -64 -8 -4 -22 8 -39 34 -15 22 -25 42 -23 43 2 2 56 42 121 90 64 47
143 112 177 142 l60 56 17 -32 c21 -42 16 -80 -29 -197 l-35 -94 27 26 c15 14
40 48 56 76 17 27 32 50 35 50 3 0 14 -16 24 -35 19 -35 19 -36 -1 -58 -11
-12 -36 -47 -55 -77 -19 -30 -58 -76 -87 -103 -37 -32 -48 -47 -35 -47 23 0
117 96 142 147 11 21 32 49 46 62 l26 24 39 -84 c21 -46 42 -99 45 -117 l8
-32 117 0 118 0 -3 482 c-2 435 11 896 31 1053 5 39 50 604 80 1005 8 113 20
252 26 308 7 66 8 107 2 113 -7 7 -15 -63 -23 -191 -7 -110 -16 -200 -20 -200
-21 0 -56 145 -40 165 11 14 17 237 7 253 -13 20 2 32 39 32 21 0 33 -4 29
-10 -3 -6 4 -10 17 -11 13 0 52 -8 88 -17 l64 -18 -3 -122 c-2 -105 -1 -122
13 -122 8 0 19 -6 23 -13 4 -7 33 -23 63 -36 30 -13 60 -29 66 -37 6 -7 65
-41 130 -75 140 -72 210 -129 159 -129 -8 0 -15 5 -15 10 0 6 -4 10 -10 10
-15 0 -12 -49 9 -136 11 -44 25 -115 31 -160 6 -44 13 -91 15 -105 3 -13 9
-85 14 -159 5 -74 12 -144 16 -155 4 -11 -13 10 -39 47 -30 44 -79 94 -146
149 -98 81 -100 82 -94 118 3 20 1 47 -5 61 -9 23 -10 22 -12 -15 -1 -22 -1
-43 0 -47 2 -12 -13 -9 -37 8 -12 8 -22 26 -22 40 0 15 -6 24 -16 24 -8 0 -12
-4 -9 -10 8 -13 -20 -13 -43 0 -9 5 -29 14 -44 20 -23 8 -28 16 -29 47 -2 31
-3 33 -6 10 -3 -16 -9 -25 -15 -21 -8 5 -9 -13 -5 -62 7 -93 -9 -337 -24 -366
l-13 -23 -7 30 c-6 27 -7 25 -8 -14 -1 -60 -31 -165 -43 -153 -16 16 -21 190
-10 302 6 58 7 125 3 150 l-7 45 -8 -55 c-9 -67 -12 -313 -7 -475 3 -92 0
-133 -13 -177 -19 -64 -37 -200 -36 -268 0 -25 8 -83 17 -129 11 -59 14 -108
9 -167 -4 -60 -3 -86 6 -96 17 -17 19 -91 4 -100 -8 -4 -11 -70 -9 -225 2
-236 3 -263 15 -263 13 0 9 -58 -4 -63 -10 -4 -10 -6 0 -6 6 -1 12 -12 12 -26
0 -24 2 -25 64 -25 75 0 67 -17 92 180 37 291 29 588 -22 900 -14 85 -28 218
-31 294 -5 127 -4 140 12 152 16 12 17 16 4 31 -10 13 -13 35 -9 78 l5 60 48
-140 c74 -214 105 -344 117 -490 6 -71 16 -159 23 -195 8 -43 12 -175 12 -385
0 -323 -11 -460 -37 -476 -8 -6 1 -9 25 -9 31 0 37 3 37 20 0 12 10 25 25 32
14 6 25 15 25 20 0 4 4 8 9 8 5 0 7 -18 4 -40 -5 -38 -4 -40 21 -40 29 0 30 2
17 48 -6 19 -6 32 -1 32 5 0 7 12 4 28 -6 30 -2 36 122 176 69 80 119 149 149
206 13 25 15 250 15 1834 l0 1806 -2700 0 -2700 0 0 -922z m3227 810 c-3 -8
-6 -5 -6 6 -1 11 2 17 5 13 3 -3 4 -12 1 -19z m-2168 -491 c1 -5 -3 -5 -9 -2
-5 3 -10 16 -9 28 0 21 1 21 9 2 5 -11 9 -24 9 -28z m-36 -12 c-3 -9 1 -23 8
-32 13 -15 12 -15 -8 -2 -13 8 -23 17 -23 21 0 17 13 37 21 33 4 -3 6 -12 2
-20z m757 -26 c0 -35 -15 -31 -22 6 -4 17 -1 25 8 25 9 0 14 -11 14 -31z
m-705 -29 c3 -5 2 -10 -4 -10 -5 0 -13 5 -16 10 -3 6 -2 10 4 10 5 0 13 -4 16
-10z m158 -30 c-4 -4 -26 -10 -48 -13 l-40 -6 35 18 c33 16 71 17 53 1z m297
0 c0 -5 -2 -10 -4 -10 -3 0 -8 5 -11 10 -3 6 -1 10 4 10 6 0 11 -4 11 -10z
m70 -10 c0 -5 -2 -10 -4 -10 -3 0 -8 5 -11 10 -3 6 -1 10 4 10 6 0 11 -4 11
-10z m107 -27 c-3 -10 -5 -4 -5 12 0 17 2 24 5 18 2 -7 2 -21 0 -30z m-447 17
c0 -5 -5 -10 -11 -10 -5 0 -7 5 -4 10 3 6 8 10 11 10 2 0 4 -4 4 -10z m338
-89 c27 -23 28 -31 4 -31 -11 0 -24 11 -30 25 -14 30 -5 31 26 6z m-48 -6 c10
-12 10 -15 -3 -15 -8 0 -17 7 -21 15 -3 8 -2 15 3 15 5 0 14 -7 21 -15z m190
-19 c0 -13 -9 -34 -19 -47 l-20 -24 8 36 c13 59 31 79 31 35z m-175 -16 c4 -6
23 -7 46 -4 23 4 39 3 39 -3 0 -6 -12 -8 -26 -5 -26 5 -26 4 -19 -39 13 -71 5
-139 -13 -113 -4 5 -20 19 -35 31 -16 12 -23 24 -17 28 14 9 12 35 -5 69 -8
15 -15 32 -15 37 0 12 37 11 45 -1z m25 -257 c0 -20 -3 -24 -11 -16 -7 7 -9
19 -6 27 10 24 17 19 17 -11z m-33 -55 c-3 -8 -6 -5 -6 6 -1 11 2 17 5 13 3
-3 4 -12 1 -19z m388 -196 c77 -49 165 -135 190 -189 33 -69 32 -85 -4 -37
-34 47 -63 73 -116 104 -22 13 -62 43 -89 67 -26 24 -51 43 -55 43 -4 0 -23
20 -44 44 l-37 45 57 -26 c32 -15 76 -38 98 -51z m1186 -387 c11 -67 21 -403
12 -408 -4 -2 -66 -6 -138 -8 l-129 -4 -7 25 c-10 34 -11 410 -1 411 4 1 39 3
78 5 39 2 88 8 110 13 59 14 68 10 75 -34z m-377 -182 c4 -98 9 -194 12 -215
l5 -36 -78 -6 c-43 -4 -103 -8 -134 -11 l-56 -4 -6 52 c-4 29 -9 127 -13 219
l-7 167 89 4 c49 1 110 4 135 5 l47 2 6 -177z m2598 -434 c15 -92 17 -131 11
-158 -11 -44 -21 1 -27 118 -6 124 -1 138 16 40z m-665 -261 c-3 -8 -6 -5 -6
6 -1 11 2 17 5 13 3 -3 4 -12 1 -19z m63 -159 c0 -30 -24 -45 -44 -27 -9 9
-10 18 -2 34 15 32 46 27 46 -7z m-2000 -133 c0 -12 -5 -7 -19 24 -11 24 -11
24 3 6 9 -11 16 -24 16 -30z m-805 -46 c-3 -5 -12 -10 -18 -10 -7 0 -6 4 3 10
19 12 23 12 15 0z m-35 -30 c-8 -5 -24 -9 -35 -9 l-20 0 20 9 c11 5 27 9 35 9
13 1 13 0 0 -9z m3175 -120 c26 0 27 -1 12 -18 -10 -11 -14 -26 -10 -40 4 -17
1 -22 -13 -22 -9 0 -26 -7 -36 -17 -17 -15 -18 -15 -18 9 0 15 -9 32 -22 41
l-23 16 22 7 c12 3 24 17 28 32 6 25 8 26 19 9 7 -9 26 -17 41 -17z m-367
-532 c2 -55 0 -126 -4 -157 l-8 -56 -7 85 c-3 47 -3 108 1 135 8 53 5 69 -10
45 -8 -12 -10 -11 -10 5 0 11 3 30 6 43 13 49 29 0 32 -100z"/>
<path d="M1116 3474 c-9 -24 -7 -36 4 -29 6 4 8 10 5 15 -3 4 0 10 7 12 8 3 9
6 1 11 -6 4 -14 0 -17 -9z"/>
<path d="M1088 3363 c7 -3 16 -2 19 1 4 3 -2 6 -13 5 -11 0 -14 -3 -6 -6z"/>
<path d="M922 3309 c2 -7 10 -15 17 -17 8 -3 12 1 9 9 -2 7 -10 15 -17 17 -8
3 -12 -1 -9 -9z"/>
<path d="M1343 3250 c-24 -10 -30 -25 -13 -35 6 -3 10 1 10 9 0 9 7 16 15 16
8 0 15 5 15 10 0 6 -1 10 -2 9 -2 0 -13 -4 -25 -9z"/>
<path d="M1390 3246 c0 -8 5 -18 10 -21 6 -3 10 3 10 14 0 12 -4 21 -10 21 -5
0 -10 -6 -10 -14z"/>
<path d="M1191 2934 c0 -11 3 -14 6 -6 3 7 2 16 -1 19 -3 4 -6 -2 -5 -13z"/>
<path d="M4750 2920 c0 -11 5 -20 10 -20 6 0 10 9 10 20 0 11 -4 20 -10 20 -5
0 -10 -9 -10 -20z"/>
<path d="M1275 2760 c-8 -13 11 -30 35 -30 12 0 13 2 1 9 -7 5 -17 14 -21 21
-6 10 -9 10 -15 0z"/>
<path d="M4960 2567 c0 -57 14 -157 21 -157 5 0 9 38 9 84 0 65 -3 85 -15 90
-11 4 -15 -1 -15 -17z"/>
<path d="M4727 2083 c-3 -16 1 -36 9 -48 13 -18 14 -16 8 25 -8 56 -10 58 -17
23z"/>
<path d="M4785 1389 c-11 -17 -2 -18 25 -4 24 14 24 14 3 15 -12 0 -25 -5 -28
-11z"/>
<path d="M1187 1293 c-16 -8 -27 -16 -25 -18 2 -1 35 2 73 8 51 7 65 12 50 18
-30 12 -67 9 -98 -8z"/>
<path d="M4825 1209 c-15 -7 -11 -8 17 -4 24 4 38 1 41 -7 3 -8 6 -6 6 5 1 19
-30 22 -64 6z"/>
<path d="M4890 1166 c0 -8 -8 -17 -17 -19 -14 -4 -12 -5 5 -6 16 -1 22 5 22
19 0 11 -2 20 -5 20 -3 0 -5 -6 -5 -14z"/>
<path d="M1801 1154 c0 -11 3 -14 6 -6 3 7 2 16 -1 19 -3 4 -6 -2 -5 -13z"/>
<path d="M2708 1153 c-10 -2 -18 -9 -18 -14 0 -5 -6 -8 -12 -6 -7 1 -12 -6
-10 -15 1 -9 -2 -19 -8 -23 -8 -5 -7 -11 1 -21 6 -8 9 -18 5 -22 -4 -4 -14 1
-21 12 -10 13 -23 17 -45 14 -27 -4 -31 -1 -39 26 -6 23 -13 30 -27 28 -10 -1
-57 -7 -104 -12 -47 -5 -146 -19 -220 -30 -217 -33 -551 -81 -597 -87 -24 -3
-40 -10 -37 -15 4 -5 17 -7 30 -4 13 4 43 1 66 -5 45 -11 156 -27 221 -31 23
-1 37 -7 37 -15 0 -7 4 -13 9 -13 4 0 20 -12 35 -26 21 -22 24 -29 14 -42 -11
-13 -5 -14 47 -8 33 3 105 11 160 16 55 6 111 13 125 16 14 3 61 9 105 14 44
5 100 11 125 15 30 4 40 3 30 -3 -15 -9 -60 -16 -170 -27 -88 -9 -204 -26
-220 -32 -8 -3 -55 -8 -104 -10 -94 -5 -164 -21 -95 -22 32 -1 37 -5 42 -28 3
-16 1 -29 -4 -31 -5 -2 -9 -8 -9 -13 0 -6 4 -7 10 -4 11 7 51 -70 75 -145 16
-52 16 -58 0 -114 -25 -86 -39 -96 -134 -96 -62 0 -90 -5 -135 -25 -31 -14
-74 -25 -96 -25 -21 0 -41 -4 -45 -9 -12 -20 -113 -44 -214 -51 -58 -4 -126
-13 -151 -20 -48 -12 -253 -6 -345 10 -27 5 -70 11 -94 12 l-45 3 2 -100 c1
-55 5 -117 8 -138 l6 -37 990 0 c937 0 989 1 984 18 -2 9 -7 71 -11 137 -22
411 -51 633 -94 713 -7 13 -10 26 -7 29 3 3 -2 12 -12 20 -9 8 -11 12 -4 8 7
-4 12 1 12 11 0 32 10 7 32 -77 11 -46 24 -87 27 -91 6 -7 -17 357 -24 380 -4
12 -16 13 -47 5z m-68 -114 c0 -11 4 -17 10 -14 6 3 7 -1 4 -10 -8 -20 -19 -9
-28 28 -4 19 -3 26 4 22 5 -3 10 -15 10 -26z m0 -239 c0 -5 -4 -10 -10 -10 -5
0 -10 5 -10 10 0 6 5 10 10 10 6 0 10 -4 10 -10z"/>
<path d="M1658 1113 c7 -3 16 -2 19 1 4 3 -2 6 -13 5 -11 0 -14 -3 -6 -6z"/>
<path d="M1966 1095 c-3 -8 -4 -15 -3 -15 1 0 20 7 42 15 l40 14 -36 1 c-24 0
-39 -5 -43 -15z"/>
<path d="M4855 1090 c-19 -8 -19 -9 -1 -9 18 -1 19 -7 1 -56 -5 -16 -5 -17 4
-5 8 11 13 12 22 3 18 -18 39 -4 38 26 -2 23 -2 24 -6 4 -7 -34 -35 -30 -31 5
2 15 8 26 16 25 6 -2 12 2 12 7 0 12 -27 12 -55 0z"/>
<path d="M635 1030 c-75 -45 -78 -47 -108 -61 l-27 -12 22 -25 23 -25 -55 7
c-46 5 -59 3 -80 -14 -23 -18 -24 -20 -5 -21 53 -6 125 -3 125 3 0 5 6 8 14 8
8 0 18 10 21 21 6 17 9 19 16 8 7 -11 9 -11 9 2 0 20 73 96 78 81 2 -6 -2 -20
-8 -31 -15 -30 -7 -26 34 15 26 26 35 42 31 55 -9 27 -32 24 -90 -11z"/>
<path d="M728 994 c-9 -16 -19 -64 -12 -64 3 0 12 7 21 16 11 11 13 21 6 36
-5 12 -12 18 -15 12z"/>
<path d="M1498 983 c12 -2 30 -2 40 0 9 3 -1 5 -23 4 -22 0 -30 -2 -17 -4z"/>
<path d="M4881 959 c-21 -8 -23 -13 -17 -51 4 -23 9 -44 11 -46 7 -8 55 8 55
18 0 6 -9 6 -24 0 -22 -8 -25 -6 -31 20 -4 16 -4 34 0 40 9 14 42 13 48 -2 3
-7 6 -3 6 10 1 24 -10 26 -48 11z"/>
<path d="M0 809 c0 -133 -1 -132 65 -74 17 15 49 40 72 57 42 28 55 48 32 48
-6 0 -47 20 -90 44 l-79 45 0 -120z"/>
<path d="M965 919 c-27 -5 -76 -11 -107 -14 l-58 -6 0 -45 c0 -51 19 -66 54
-44 39 24 137 70 150 70 5 0 21 11 38 25 l30 25 -29 -1 c-15 -1 -50 -5 -78
-10z"/>
<path d="M700 901 c0 -6 5 -13 10 -16 6 -3 10 1 10 9 0 9 -4 16 -10 16 -5 0
-10 -4 -10 -9z"/>
<path d="M553 873 c-7 -2 -9 -11 -6 -20 6 -15 -5 -15 -105 -9 -103 6 -116 5
-155 -15 -23 -12 -44 -25 -47 -30 -3 -4 -13 -7 -23 -6 -10 1 -62 -29 -117 -68
l-100 -70 0 -327 0 -328 424 0 423 0 -4 73 c-3 39 -8 103 -12 140 l-6 69 -40
14 c-22 8 -46 11 -54 9 -19 -7 -116 11 -193 36 -129 42 -217 100 -270 177 -32
46 -29 58 11 64 14 1 27 9 29 17 4 12 -11 13 -92 7 -53 -4 -96 -5 -96 -2 0 10
114 27 233 35 4 1 7 9 7 19 0 11 3 13 8 5 8 -13 23 -16 69 -14 28 1 33 5 39
36 8 42 30 46 45 8 l11 -28 14 30 c7 17 13 24 14 18 0 -17 45 -17 59 0 6 8 8
17 4 20 -3 4 -1 7 5 7 7 0 12 -6 12 -12 0 -8 4 -6 10 3 5 9 26 20 45 23 19 4
35 11 35 15 0 5 11 12 25 15 22 6 25 11 24 49 -1 23 -4 32 -6 20 -5 -29 -32
-30 -66 -3 -21 17 -26 17 -31 5 -7 -19 -36 -8 -36 13 0 12 -3 13 -12 4 -9 -9
-7 -16 7 -32 26 -29 11 -37 -17 -9 -34 36 -52 47 -65 42z m-112 -206 c-6 -6
-14 -7 -18 -3 -4 4 -1 11 7 16 11 7 12 10 2 10 -7 0 -10 5 -6 11 5 8 10 6 16
-6 7 -11 6 -21 -1 -28z m-361 -67 c0 -5 -10 -10 -22 -9 -22 0 -22 1 -3 9 11 5
21 9 23 9 1 1 2 -3 2 -9z"/>
<path d="M4893 813 c-24 -9 -13 -20 17 -15 17 2 30 8 30 13 0 10 -27 11 -47 2z"/>
<path d="M4881 753 c-1 -27 3 -33 19 -33 11 0 20 4 20 10 0 5 -6 7 -14 4 -10
-4 -16 3 -19 23 -4 27 -4 27 -6 -4z"/>
<path d="M4937 750 c-3 -11 -1 -20 4 -20 5 0 9 9 9 20 0 11 -2 20 -4 20 -2 0
-6 -9 -9 -20z"/>
<path d="M4890 661 c0 -5 6 -11 13 -14 10 -3 10 -9 0 -26 -17 -27 -16 -32 2
-25 8 4 15 1 15 -5 0 -17 27 -13 34 5 4 9 4 19 1 22 -3 3 -5 0 -5 -6 0 -7 -7
-12 -16 -12 -11 0 -14 8 -12 28 2 15 8 26 16 25 6 -2 12 2 12 7 0 6 -13 10
-30 10 -16 0 -30 -4 -30 -9z"/>
<path d="M358 613 c7 -3 16 -2 19 1 4 3 -2 6 -13 5 -11 0 -14 -3 -6 -6z"/>
<path d="M4892 488 l1 -43 4 38 c2 20 8 37 13 37 5 0 11 -17 13 -37 l4 -38 1
38 c2 38 17 50 25 20 4 -14 5 -12 6 5 1 19 -4 22 -34 22 -35 0 -35 0 -33 -42z"/>
<path d="M4951 464 c0 -11 3 -14 6 -6 3 7 2 16 -1 19 -3 4 -6 -2 -5 -13z"/>
<path d="M2821 438 c-1 -33 17 -311 25 -385 l5 -53 40 0 c21 0 39 5 39 10 0
12 -98 429 -104 445 -3 6 -5 -2 -5 -17z"/>
<path d="M4884 386 c-9 -36 -1 -71 16 -71 9 0 16 10 17 25 1 14 0 18 -3 8 -11
-36 -27 -18 -21 22 6 44 1 54 -9 16z"/>
<path d="M4920 392 c0 -4 9 -8 19 -8 11 0 17 4 15 8 -3 4 -12 8 -20 8 -8 0
-14 -4 -14 -8z"/>
<path d="M4877 263 c-4 -3 -7 -24 -7 -45 0 -31 3 -38 20 -38 15 0 20 7 20 29
0 34 18 51 31 30 7 -11 9 -10 9 4 0 10 -8 17 -19 17 -20 0 -31 -18 -31 -51 0
-10 -5 -19 -11 -19 -7 0 -10 15 -7 40 2 22 3 40 2 40 0 0 -4 -3 -7 -7z"/>
<path d="M4860 120 c0 -5 6 -7 14 -4 8 3 24 1 35 -6 12 -6 21 -7 21 -1 0 5 -7
12 -16 15 -24 9 -54 7 -54 -4z"/>
<path d="M4853 70 c2 -33 4 -35 37 -35 31 0 35 3 36 28 1 26 1 26 -3 2 -4 -22
-9 -26 -31 -23 -21 2 -28 10 -34 33 -6 29 -6 29 -5 -5z"/>
<path d="M4152 58 c-7 -7 -12 -22 -12 -35 0 -19 5 -23 30 -23 17 0 30 2 30 4
0 13 -23 66 -29 66 -4 0 -12 -5 -19 -12z"/>
</g>
</svg>
